<?xml version="1.0" standalone="no"?>
<!DOCTYPE svg PUBLIC "-//W3C//DTD SVG 20010904//EN"
 "http://www.w3.org/TR/2001/REC-SVG-20010904/DTD/svg10.dtd">
<svg version="1.0" xmlns="http://www.w3.org/2000/svg"
 width="512.000000pt" height="512.000000pt" viewBox="0 0 512.000000 512.000000"
 preserveAspectRatio="xMidYMid meet">

<g transform="translate(0.000000,512.000000) scale(0.100000,-0.100000)"
fill="#000000" stroke="none">
<path d="M1426 4775 c-60 -21 -108 -65 -139 -127 -83 -164 20 -353 203 -375
l50 -6 0 -173 0 -173 -667 -3 -668 -3 -57 -28 c-187 -92 -197 -356 -17 -455
l49 -27 2 -1518 3 -1519 24 -19 c23 -19 74 -19 2351 -19 2277 0 2328 0 2351
19 l24 19 0 735 c0 709 -1 736 -19 756 -25 27 -86 29 -109 3 -16 -17 -17 -80
-17 -700 l0 -682 -605 0 -605 0 0 1455 0 1455 605 0 605 0 0 -634 0 -635 26
-20 c35 -27 57 -26 91 3 l28 24 3 639 3 638 49 27 c179 99 169 363 -18 455
l-57 28 -667 3 -668 3 0 173 0 174 39 7 c66 11 142 63 177 123 38 63 49 122
34 188 -19 85 -70 147 -150 183 -44 20 -60 21 -1130 20 -897 0 -1092 -2 -1124
-14z m2211 -155 c45 -27 62 -84 38 -133 -34 -72 38 -68 -1145 -65 l-1062 3
-29 33 c-49 54 -36 136 26 170 14 8 328 11 1080 12 1033 0 1061 -1 1092 -20z
m-207 -2245 l0 -1895 -125 0 -125 0 0 550 0 549 -22 21 c-21 20 -32 20 -597
20 -631 -1 -603 2 -621 -61 -6 -20 -10 -252 -10 -556 l0 -523 -120 0 -120 0 0
1895 0 1895 870 0 870 0 0 -1895z m-1895 1280 l0 -110 -658 0 -659 0 -34 37
c-60 66 -36 151 51 180 11 3 308 5 660 5 l640 -2 0 -110z m3381 96 c31 -20 54
-64 54 -101 0 -47 -53 -96 -111 -105 -24 -3 -321 -5 -659 -3 l-615 3 -3 99
c-1 55 0 106 2 113 8 21 1301 15 1332 -6z m-3376 -1816 l0 -1455 -605 0 -605
0 0 1455 0 1455 605 0 605 0 0 -1455z m940 -960 l0 -495 -195 0 -195 0 0 495
0 495 195 0 195 0 0 -495z m550 0 l0 -495 -200 0 -200 0 0 495 0 495 200 0
200 0 0 -495z"/>
<path d="M2370 3897 c-55 -19 -70 -60 -70 -194 l0 -113 -121 0 c-66 0 -129 -5
-140 -10 -42 -23 -49 -59 -49 -245 0 -250 4 -255 195 -255 l115 0 0 -109 c0
-119 7 -148 41 -180 22 -20 34 -21 219 -21 185 0 197 1 219 21 34 32 41 61 41
180 l0 109 115 0 c128 0 163 10 183 55 8 17 12 87 12 201 0 185 -7 221 -49
244 -11 5 -74 10 -140 10 l-121 0 0 113 c0 134 -15 175 -70 194 -21 7 -96 12
-190 12 -94 0 -169 -5 -190 -12z m298 -279 c3 -134 3 -137 29 -157 23 -19 40
-21 154 -21 l129 0 0 -105 0 -105 -129 0 c-115 0 -131 -2 -155 -21 -26 -20
-26 -22 -26 -155 l0 -134 -110 0 -110 0 0 134 c0 133 0 135 -26 155 -24 19
-40 21 -155 21 l-129 0 0 105 0 105 130 0 c126 0 132 1 155 25 24 23 25 29 25
153 0 71 3 132 7 136 4 4 52 5 107 4 l101 -3 3 -137z"/>
<path d="M2196 2509 c-34 -27 -36 -77 -3 -107 23 -22 28 -22 364 -22 329 0
341 1 367 21 19 15 26 30 26 54 0 24 -7 39 -26 54 -26 20 -38 21 -364 21 -326
0 -338 -1 -364 -21z"/>
<path d="M2214 2166 c-48 -21 -60 -80 -24 -116 19 -19 33 -20 370 -20 337 0
351 1 370 20 38 38 22 100 -31 119 -49 17 -645 14 -685 -3z"/>
<path d="M556 3099 l-26 -20 0 -249 0 -249 26 -20 c26 -20 38 -21 375 -21 234
0 356 4 372 11 42 19 47 46 47 279 0 233 -5 260 -47 279 -16 7 -138 11 -372
11 -337 0 -349 -1 -375 -21z m644 -269 l0 -140 -260 0 -260 0 0 140 0 140 260
0 260 0 0 -140z"/>
<path d="M552 2200 c-21 -20 -22 -27 -22 -269 0 -239 1 -249 21 -267 20 -18
43 -19 380 -22 l360 -3 30 30 30 30 -3 242 c-3 239 -3 241 -27 260 -22 18 -44
19 -385 19 -351 0 -363 -1 -384 -20z m646 -267 l-3 -138 -257 -3 -258 -2 0
140 0 140 260 0 261 0 -3 -137z"/>
<path d="M550 1300 c-19 -19 -20 -33 -20 -268 0 -228 2 -250 18 -265 17 -15
58 -17 390 -17 l371 0 21 27 c20 26 21 35 18 266 -3 237 -3 239 -27 258 -22
18 -44 19 -387 19 -351 0 -365 -1 -384 -20z m650 -265 l0 -135 -260 0 -260 0
0 135 0 135 260 0 260 0 0 -135z"/>
<path d="M3814 3108 c-39 -19 -44 -49 -44 -279 0 -237 6 -270 52 -283 13 -3
179 -6 369 -6 335 0 347 1 373 21 l26 20 0 249 0 249 -26 20 c-26 20 -37 21
-378 20 -220 0 -359 -4 -372 -11z m626 -278 l0 -140 -260 0 -260 0 0 140 0
140 260 0 260 0 0 -140z"/>
<path d="M3799 2201 c-24 -19 -24 -21 -27 -260 l-3 -242 30 -30 30 -30 360 3
c337 3 360 4 380 22 20 18 21 28 21 267 0 242 -1 249 -22 269 -21 19 -33 20
-384 20 -341 0 -363 -1 -385 -19z m641 -271 l0 -140 -257 2 -258 3 -3 138 -3
137 261 0 260 0 0 -140z"/>
<path d="M3795 1295 l-25 -24 0 -234 c0 -222 1 -236 21 -261 l20 -26 373 0
c349 0 374 1 389 18 15 16 17 50 17 265 0 234 -1 248 -20 267 -19 19 -33 20
-385 20 l-366 0 -24 -25z m645 -260 l0 -135 -260 0 -260 0 0 135 0 135 260 0
260 0 0 -135z"/>
</g>
</svg>
