<?xml version="1.0" standalone="no"?>
<!DOCTYPE svg PUBLIC "-//W3C//DTD SVG 20010904//EN"
 "http://www.w3.org/TR/2001/REC-SVG-20010904/DTD/svg10.dtd">
<svg version="1.0" xmlns="http://www.w3.org/2000/svg"
 width="512.000000pt" height="512.000000pt" viewBox="0 0 512.000000 512.000000"
 preserveAspectRatio="xMidYMid meet">

<g transform="translate(0.000000,512.000000) scale(0.100000,-0.100000)"
fill="#000000" stroke="none">
<path d="M554 4960 c-433 -113 -534 -569 -272 -1235 57 -145 225 -485 240
-485 5 0 38 16 73 35 l63 36 -79 153 c-251 487 -338 881 -248 1121 27 72 104
157 172 188 225 106 625 32 1092 -200 115 -58 345 -186 345 -194 0 -3 -24 -13
-54 -22 -81 -26 -279 -126 -381 -194 -802 -530 -1091 -1569 -675 -2431 155
-322 381 -581 675 -775 102 -68 300 -168 381 -194 30 -9 54 -19 54 -22 0 -3
-58 -38 -128 -77 -426 -240 -786 -364 -1052 -364 -163 0 -256 28 -335 101 -93
85 -126 180 -126 355 0 238 87 522 273 887 44 87 79 159 77 161 -2 2 -34 20
-70 40 l-67 37 -100 -203 c-191 -385 -272 -662 -272 -922 0 -204 52 -351 159
-456 64 -63 168 -120 261 -145 73 -20 282 -19 396 0 295 51 664 204 1039 430
l160 97 100 -17 c137 -23 357 -30 490 -16 593 64 1101 373 1422 863 66 100
172 311 194 386 7 23 15 42 18 42 4 0 41 -62 83 -137 240 -433 358 -775 358
-1043 0 -176 -35 -276 -125 -359 -145 -132 -401 -140 -757 -25 -180 58 -442
176 -605 272 -58 34 -53 37 -102 -50 l-32 -57 53 -31 c105 -61 352 -180 476
-229 248 -97 450 -141 651 -141 144 0 201 12 309 66 321 158 381 573 165 1149
-62 166 -203 449 -318 640 l-97 160 11 65 c40 238 40 442 0 680 l-11 65 97
160 c288 478 445 915 445 1239 0 204 -51 349 -159 457 -208 207 -589 213
-1092 18 -107 -42 -467 -214 -486 -232 -3 -4 59 -118 73 -136 2 -2 74 33 161
77 486 247 869 331 1108 241 72 -27 157 -104 188 -172 106 -226 31 -627 -205
-1101 -55 -110 -182 -336 -189 -336 -3 0 -11 19 -18 43 -7 23 -39 97 -71 165
-328 688 -1036 1118 -1795 1089 -77 -3 -185 -13 -240 -22 l-100 -17 -157 95
c-379 230 -744 381 -1037 431 -130 22 -315 20 -407 -4z m2291 -664 c126 -23
241 -54 344 -94 l96 -37 -85 -5 c-54 -3 -97 -12 -117 -23 -35 -19 -146 -174
-166 -232 l-12 -33 -82 69 c-66 56 -83 76 -83 97 0 40 -33 94 -69 116 -18 10
-63 25 -102 32 -56 10 -84 23 -145 66 l-76 53 43 7 c70 10 367 0 454 -16z
m-709 -113 c23 -39 52 -75 70 -85 17 -10 76 -26 130 -36 85 -15 106 -23 152
-57 28 -22 52 -42 52 -46 0 -4 -8 -16 -17 -28 -13 -16 -57 -32 -165 -59 -115
-30 -154 -44 -175 -65 -16 -14 -73 -87 -128 -162 l-100 -136 -150 -76 c-146
-74 -155 -77 -332 -113 -110 -23 -191 -45 -207 -56 -48 -35 -66 -90 -66 -198
0 -136 12 -158 140 -243 l100 -66 0 -74 0 -73 -174 87 -175 88 -105 135 c-58
74 -106 143 -106 153 0 30 67 194 126 306 81 157 174 281 314 421 140 140 264
233 423 315 115 60 298 134 333 135 16 0 31 -17 60 -67z m1495 -229 c41 -31
113 -95 162 -142 87 -87 87 -87 65 -103 -21 -17 -27 -15 -160 52 -163 82 -169
82 -353 38 l-131 -32 -71 47 -72 48 46 69 46 69 186 3 c102 1 191 3 197 5 7 1
45 -23 85 -54z m-691 -324 c80 -71 158 -142 174 -159 l30 -31 -88 0 c-129 0
-148 -13 -246 -161 -72 -108 -80 -126 -80 -167 1 -58 62 -303 84 -338 28 -42
71 -60 233 -99 l156 -37 108 35 107 34 51 -51 50 -51 3 -157 3 -157 43 -60
c23 -33 42 -64 42 -68 0 -14 -308 -335 -467 -486 -267 -255 -548 -487 -855
-708 -177 -127 -162 -124 -327 -62 -253 94 -449 220 -636 408 -157 156 -242
273 -335 460 -105 211 -155 382 -181 616 -16 141 -1 459 21 459 4 0 41 -43 81
-96 l74 -96 208 -104 c114 -57 217 -104 227 -104 19 0 20 -8 20 -145 0 -124 3
-151 19 -183 30 -57 167 -185 239 -221 l62 -31 0 -143 0 -142 80 -240 c95
-285 100 -292 227 -332 93 -28 130 -26 183 10 60 40 70 74 70 229 l0 138 123
61 c181 90 189 100 197 238 l5 94 80 27 c120 39 145 68 180 209 42 171 28 237
-61 281 -27 13 -60 20 -102 20 l-62 0 -64 99 c-87 135 -100 141 -283 141
l-138 0 -95 96 c-154 156 -180 159 -369 45 l-131 -80 0 85 c0 122 -15 147
-140 231 l-100 66 0 66 0 67 173 33 c169 33 175 35 337 117 186 92 184 91 325
281 l90 121 150 38 c149 36 150 37 195 84 l45 47 60 -49 c33 -28 125 -108 205
-178z m713 -27 c157 -79 206 -86 276 -40 22 15 45 27 50 27 19 0 156 -231 149
-251 -2 -6 -52 -38 -112 -73 l-109 -62 -181 35 -181 36 -168 165 -168 164 63
13 c35 7 95 22 133 32 39 11 80 20 93 20 12 1 82 -29 155 -66z m-317 -377 c99
-67 284 -263 527 -559 l89 -107 -108 -130 c-59 -72 -110 -133 -115 -135 -4 -3
-17 8 -28 24 -19 26 -21 43 -21 170 0 99 -4 152 -14 175 -31 73 -161 190 -223
200 -28 5 -65 -2 -143 -27 l-105 -33 -125 31 -124 30 -30 120 -29 121 58 87
58 87 126 0 126 0 81 -54z m899 -127 c14 -44 25 -88 25 -97 0 -15 -119 -191
-188 -278 l-22 -29 -38 45 c-20 24 -92 109 -159 187 -68 79 -123 145 -123 146
0 2 39 -4 87 -13 47 -9 98 -14 114 -12 15 2 78 33 140 68 63 35 119 63 126 64
7 0 24 -36 38 -81z m83 -539 c0 -63 -3 -136 -6 -162 l-7 -47 -77 104 -78 105
78 105 77 104 7 -47 c3 -26 6 -99 6 -162z m-2186 -145 c27 -11 73 -15 171 -15
l134 0 63 -95 c81 -122 103 -139 197 -144 78 -3 79 -4 64 -61 -6 -19 -15 -54
-21 -77 -10 -41 -12 -42 -91 -68 -136 -46 -169 -89 -169 -225 l0 -80 -127 -64
c-188 -94 -193 -102 -193 -301 l0 -133 -48 15 -48 16 -72 216 -72 216 0 142
c0 78 -5 154 -11 170 -16 43 -48 72 -114 105 -34 17 -89 58 -127 96 l-68 66 0
121 0 120 153 92 152 92 95 -94 c52 -52 112 -101 132 -110z m1995 -92 c134
-188 136 -190 128 -231 -16 -89 -124 -337 -197 -455 l-24 -37 -56 57 -57 58
-3 157 -3 157 -43 61 c-24 33 -42 65 -40 70 5 14 211 260 218 260 4 0 38 -44
77 -97z m-367 -496 c0 -177 2 -181 107 -289 l76 -76 -134 -134 c-149 -148
-270 -239 -430 -322 -180 -94 -342 -149 -539 -182 -106 -18 -356 -28 -432 -17
l-57 8 122 90 c348 256 615 489 972 850 l270 273 22 -26 c21 -25 23 -36 23
-175z"/>
</g>
</svg>
