<?xml version="1.0" standalone="no"?>
<!DOCTYPE svg PUBLIC "-//W3C//DTD SVG 20010904//EN"
 "http://www.w3.org/TR/2001/REC-SVG-20010904/DTD/svg10.dtd">
<svg version="1.0" xmlns="http://www.w3.org/2000/svg"
 width="512.000000pt" height="512.000000pt" viewBox="0 0 512.000000 512.000000"
 preserveAspectRatio="xMidYMid meet">

<g transform="translate(0.000000,512.000000) scale(0.100000,-0.100000)"
fill="#000000" stroke="none">
<path d="M800 4947 c-49 -16 -133 -102 -148 -153 -8 -26 -12 -112 -12 -233 0
-190 0 -192 25 -216 13 -14 31 -25 40 -25 12 0 15 -17 15 -102 l0 -103 -211
-175 c-150 -124 -218 -187 -237 -220 l-27 -45 -3 -850 c-3 -888 -3 -898 40
-958 19 -27 19 -27 0 -55 -55 -79 -55 -185 0 -264 19 -28 19 -28 0 -55 -55
-80 -55 -186 0 -265 19 -28 19 -28 0 -55 -55 -80 -55 -186 0 -265 19 -28 19
-28 0 -55 -36 -51 -45 -103 -41 -250 4 -138 5 -141 42 -215 44 -91 102 -147
195 -191 l67 -32 495 0 495 0 67 32 c93 44 151 100 195 191 37 74 38 77 42
215 4 147 -5 199 -41 250 -19 27 -19 27 0 55 55 79 55 185 0 265 -19 27 -19
27 0 55 55 79 55 185 0 264 -19 28 -19 28 0 55 55 80 55 186 0 266 -19 27 -19
27 0 55 43 59 43 69 40 957 l-3 850 -27 47 c-20 33 -85 94 -237 220 l-210 173
0 103 c-1 86 1 102 14 102 9 0 27 11 40 25 25 24 25 26 25 216 0 119 -4 207
-12 231 -6 22 -31 62 -55 88 -66 73 -96 80 -337 79 -116 -1 -216 -6 -236 -12z
m455 -172 c24 -23 25 -29 25 -160 l0 -135 -240 0 -240 0 0 135 c0 131 1 137
25 160 24 25 26 25 215 25 189 0 191 0 215 -25z m-55 -535 l0 -80 -160 0 -160
0 0 80 0 80 160 0 160 0 0 -80z m251 -406 c110 -91 206 -175 214 -187 9 -13
15 -44 15 -74 l0 -53 -640 0 -640 0 0 54 c0 43 5 61 23 81 12 14 108 97 212
185 l190 158 213 1 214 1 199 -166z m229 -1034 l0 -560 -640 0 -640 0 0 560 0
560 640 0 640 0 0 -560z m0 -775 c0 -46 -4 -60 -25 -80 l-24 -25 -591 0 -591
0 -24 25 c-21 20 -25 34 -25 80 l0 55 640 0 640 0 0 -55z m-25 -290 c33 -32
33 -78 0 -110 l-24 -25 -591 0 -591 0 -24 25 c-16 15 -25 36 -25 55 0 19 9 40
25 55 l24 25 591 0 591 0 24 -25z m0 -320 c33 -32 33 -78 0 -110 l-24 -25
-591 0 -591 0 -24 25 c-16 15 -25 36 -25 55 0 19 9 40 25 55 l24 25 591 0 591
0 24 -25z m0 -320 c33 -32 33 -78 0 -110 l-24 -25 -591 0 -591 0 -24 25 c-16
15 -25 36 -25 55 0 19 9 40 25 55 l24 25 591 0 591 0 24 -25z m0 -320 c24 -23
25 -31 25 -136 0 -61 -5 -130 -12 -153 -16 -55 -99 -138 -154 -154 -58 -17
-890 -17 -948 0 -55 16 -138 99 -154 154 -7 23 -12 92 -12 153 0 105 1 113 25
136 l24 25 591 0 591 0 24 -25z"/>
<path d="M998 3190 c-9 -6 -33 -40 -54 -78 -20 -37 -67 -110 -104 -162 -103
-144 -115 -172 -115 -260 1 -89 30 -156 91 -210 67 -58 117 -75 224 -75 107 0
157 17 224 75 61 54 90 121 91 210 0 88 -12 116 -115 260 -37 52 -84 125 -104
163 -21 37 -46 72 -56 77 -23 13 -60 12 -82 0z m109 -327 c33 -49 68 -103 78
-122 44 -87 -31 -181 -145 -181 -114 0 -189 94 -145 181 24 46 137 209 145
209 4 0 34 -39 67 -87z"/>
<path d="M3200 4947 c-49 -16 -133 -102 -148 -153 -8 -26 -12 -112 -12 -233 0
-190 0 -192 25 -216 13 -14 31 -25 40 -25 13 0 15 -14 13 -96 l-3 -96 -500
-230 c-412 -190 -507 -237 -542 -271 -69 -66 -73 -89 -73 -417 0 -295 3 -327
42 -382 19 -28 19 -28 0 -55 -55 -80 -55 -186 0 -265 19 -28 19 -28 0 -55 -55
-80 -55 -186 0 -265 19 -28 19 -28 0 -55 -55 -80 -55 -186 0 -266 19 -27 19
-27 0 -55 -55 -79 -55 -185 0 -264 19 -28 19 -28 0 -55 -10 -16 -24 -43 -30
-62 -23 -66 -11 -144 30 -203 19 -28 19 -28 0 -55 -55 -80 -55 -186 0 -265 19
-28 19 -28 0 -55 -36 -51 -45 -103 -41 -250 4 -138 5 -141 42 -215 44 -91 102
-147 195 -191 l67 -32 1135 0 1135 0 67 32 c93 44 151 100 195 191 37 74 38
77 42 215 4 147 -5 199 -41 250 -19 27 -19 27 0 55 10 15 24 42 30 61 23 66
11 144 -30 204 -19 27 -19 27 0 55 55 79 55 185 0 265 -19 27 -19 27 0 55 55
79 55 185 0 264 -19 28 -19 28 0 55 55 80 55 186 0 265 -19 28 -19 28 0 55 55
80 55 186 0 266 -19 27 -19 27 0 55 10 15 24 42 30 61 23 66 11 144 -30 204
-19 27 -19 27 0 55 39 55 42 87 42 382 0 328 -4 351 -73 417 -35 34 -128 81
-542 272 l-500 230 -3 96 c-2 81 0 95 13 95 9 0 27 11 40 25 25 24 25 26 25
216 0 119 -4 207 -12 231 -6 22 -31 62 -55 88 -66 73 -96 80 -337 79 -116 -1
-216 -6 -236 -12z m455 -172 c24 -23 25 -29 25 -160 l0 -135 -240 0 -240 0 0
135 c0 131 1 137 25 160 24 25 26 25 215 25 189 0 191 0 215 -25z m-55 -535
l0 -80 -160 0 -160 0 0 80 0 80 160 0 160 0 0 -80z m576 -477 l515 -238 -286
-5 c-287 -5 -287 -5 -306 -29 -26 -32 -24 -77 6 -106 l24 -25 296 0 295 0 0
-215 c0 -216 0 -216 -25 -240 l-24 -25 -1231 0 -1231 0 -24 25 c-25 24 -25 24
-25 240 l0 215 855 0 856 0 24 25 c30 29 32 74 6 106 l-19 24 -846 5 -846 5
512 237 513 237 223 1 223 0 515 -237z m-1856 -1123 l0 -80 -55 0 c-67 0 -105
29 -105 80 0 51 38 80 105 80 l55 0 0 -80z m2080 -480 l0 -560 -960 0 -960 0
0 560 0 560 960 0 960 0 0 -560z m295 535 c16 -15 25 -36 25 -55 0 -51 -38
-80 -105 -80 l-55 0 0 80 0 80 55 0 c46 0 60 -4 80 -25z m-2375 -375 l0 -80
-55 0 c-67 0 -105 29 -105 80 0 51 38 80 105 80 l55 0 0 -80z m2375 55 c16
-15 25 -36 25 -55 0 -51 -38 -80 -105 -80 l-55 0 0 80 0 80 55 0 c46 0 60 -4
80 -25z m-2375 -375 l0 -80 -55 0 c-67 0 -105 29 -105 80 0 51 38 80 105 80
l55 0 0 -80z m2375 55 c16 -15 25 -36 25 -55 0 -51 -38 -80 -105 -80 l-55 0 0
80 0 80 55 0 c46 0 60 -4 80 -25z m-2375 -375 l0 -80 -55 0 c-67 0 -105 29
-105 80 0 51 38 80 105 80 l55 0 0 -80z m2375 55 c16 -15 25 -36 25 -55 0 -51
-38 -80 -105 -80 l-55 0 0 80 0 80 55 0 c46 0 60 -4 80 -25z m0 -320 c33 -32
33 -78 0 -110 l-24 -25 -1231 0 -1231 0 -24 25 c-16 15 -25 36 -25 55 0 19 9
40 25 55 l24 25 1231 0 1231 0 24 -25z m0 -320 c33 -32 33 -78 0 -110 l-24
-25 -1231 0 -1231 0 -24 25 c-16 15 -25 36 -25 55 0 19 9 40 25 55 l24 25
1231 0 1231 0 24 -25z m0 -320 c24 -23 25 -31 25 -136 0 -61 -5 -130 -12 -153
-16 -55 -99 -138 -154 -154 -60 -17 -2168 -17 -2228 0 -55 16 -138 99 -154
154 -7 23 -12 92 -12 153 0 105 1 113 25 136 l24 25 1231 0 1231 0 24 -25z"/>
<path d="M3398 2550 c-9 -6 -33 -40 -54 -78 -20 -37 -67 -110 -104 -162 -103
-144 -115 -172 -115 -260 1 -89 30 -156 91 -210 67 -58 117 -75 224 -75 107 0
157 17 224 75 61 54 90 121 91 210 0 88 -12 116 -115 260 -37 52 -84 125 -104
163 -21 37 -46 72 -56 77 -23 13 -60 12 -82 0z m109 -327 c33 -49 68 -103 78
-122 44 -87 -31 -181 -145 -181 -114 0 -189 94 -145 181 24 46 137 209 145
209 4 0 34 -39 67 -87z"/>
</g>
</svg>
