<?xml version="1.0" encoding="UTF-8"?>
<!DOCTYPE svg PUBLIC "-//W3C//DTD SVG 1.1//EN" "http://www.w3.org/Graphics/SVG/1.1/DTD/svg11.dtd">
<svg xmlns="http://www.w3.org/2000/svg" version="1.1" width="512px" height="512px" style="shape-rendering:geometricPrecision; text-rendering:geometricPrecision; image-rendering:optimizeQuality; fill-rule:evenodd; clip-rule:evenodd" xmlns:xlink="http://www.w3.org/1999/xlink">
<g><path style="opacity:0.942" fill="#000000" d="M 239.5,-0.5 C 250.167,-0.5 260.833,-0.5 271.5,-0.5C 291.027,2.00948 309.027,8.67615 325.5,19.5C 322.918,24.3331 320.085,28.9998 317,33.5C 278.517,10.885 239.351,9.71833 199.5,30C 158.074,55.0085 138.241,91.8419 140,140.5C 144.665,181.52 164.665,212.52 200,233.5C 200.5,210.169 200.667,186.836 200.5,163.5C 187.319,163.832 177.819,158.166 172,146.5C 171.178,144.212 170.511,141.878 170,139.5C 169.5,118.836 169.333,98.1694 169.5,77.5C 175.167,77.5 180.833,77.5 186.5,77.5C 186.5,85.1667 186.5,92.8333 186.5,100.5C 191.167,100.5 195.833,100.5 200.5,100.5C 200.5,92.8333 200.5,85.1667 200.5,77.5C 206.167,77.5 211.833,77.5 217.5,77.5C 217.5,85.1667 217.5,92.8333 217.5,100.5C 222.167,100.5 226.833,100.5 231.5,100.5C 231.5,92.8333 231.5,85.1667 231.5,77.5C 237.167,77.5 242.833,77.5 248.5,77.5C 248.667,97.8361 248.5,118.169 248,138.5C 244.329,154.665 234.162,162.998 217.5,163.5C 217.5,189.5 217.5,215.5 217.5,241.5C 242.833,249.5 268.167,249.5 293.5,241.5C 293.667,218.831 293.5,196.164 293,173.5C 276.736,168.899 267.069,158.232 264,141.5C 260.652,121.6 263.986,102.933 274,85.5C 286.953,67.9036 302.787,64.737 321.5,76C 335.499,90.1886 342.166,107.355 341.5,127.5C 342.237,143.841 336.57,157.341 324.5,168C 320.371,170.321 316.037,172.154 311.5,173.5C 310.334,193.492 310.167,213.492 311,233.5C 355.737,206.024 375.404,166.024 370,113.5C 365.278,84.7102 351.778,61.0435 329.5,42.5C 328.417,41.635 328.251,40.635 329,39.5C 331.98,35.6858 335.146,32.0191 338.5,28.5C 366.221,50.9351 382.221,79.9351 386.5,115.5C 412.408,115.172 438.241,115.505 464,116.5C 474.667,159.167 485.333,201.833 496,244.5C 496.879,255.55 496.546,266.55 495,277.5C 492.749,286.672 488.415,294.672 482,301.5C 481.5,332.832 481.333,364.165 481.5,395.5C 475.833,395.5 470.167,395.5 464.5,395.5C 464.5,379.833 464.5,364.167 464.5,348.5C 418.167,348.5 371.833,348.5 325.5,348.5C 325.5,376.833 325.5,405.167 325.5,433.5C 371.833,433.5 418.167,433.5 464.5,433.5C 464.5,425.833 464.5,418.167 464.5,410.5C 470.167,410.5 475.833,410.5 481.5,410.5C 481.5,438.833 481.5,467.167 481.5,495.5C 489.167,495.5 496.833,495.5 504.5,495.5C 504.5,500.833 504.5,506.167 504.5,511.5C 338.5,511.5 172.5,511.5 6.5,511.5C 6.5,506.167 6.5,500.833 6.5,495.5C 14.1667,495.5 21.8333,495.5 29.5,495.5C 29.6667,430.832 29.5,366.166 29,301.5C 22.8666,294.905 18.5333,287.238 16,278.5C 14.4462,266.883 14.1128,255.216 15,243.5C 25.8188,200.892 36.3188,158.225 46.5,115.5C 72.5,115.5 98.5,115.5 124.5,115.5C 130.986,69.3395 154.653,35.1728 195.5,13C 209.623,6.30922 224.289,1.80922 239.5,-0.5 Z M 299.5,85.5 C 307.493,85.6485 313.327,89.3152 317,96.5C 324.398,110.77 326.398,125.77 323,141.5C 320.071,152.135 313.071,157.469 302,157.5C 291.234,157.063 284.234,151.73 281,141.5C 277.405,124.405 280.071,108.405 289,93.5C 291.855,89.7893 295.355,87.1226 299.5,85.5 Z M 186.5,116.5 C 201.5,116.5 216.5,116.5 231.5,116.5C 231.666,123.841 231.5,131.174 231,138.5C 228.934,143.626 225.1,146.459 219.5,147C 212.5,147.667 205.5,147.667 198.5,147C 192.9,146.459 189.066,143.626 187,138.5C 186.5,131.174 186.334,123.841 186.5,116.5 Z M 59.5,132.5 C 80.1667,132.5 100.833,132.5 121.5,132.5C 117.924,168.186 114.09,203.853 110,239.5C 84.5745,240.495 59.0745,240.828 33.5,240.5C 42.1667,204.5 50.8333,168.5 59.5,132.5 Z M 389.5,132.5 C 410.076,132.173 430.576,132.507 451,133.5C 459.994,169.144 468.828,204.81 477.5,240.5C 451.833,240.5 426.167,240.5 400.5,240.5C 396.687,204.514 393.02,168.514 389.5,132.5 Z M 132.5,182.5 C 146.335,213.669 168.668,236.669 199.5,251.5C 204.226,276.212 194.893,292.712 171.5,301C 148.097,304.382 132.597,294.882 125,272.5C 124.501,267.177 124.334,261.844 124.5,256.5C 137.167,256.5 149.833,256.5 162.5,256.5C 162.5,251.167 162.5,245.833 162.5,240.5C 150.5,240.5 138.5,240.5 126.5,240.5C 128.866,221.207 130.866,201.874 132.5,182.5 Z M 376.5,184.5 C 377.777,185.694 378.444,187.36 378.5,189.5C 380.176,206.422 382.176,223.256 384.5,240C 366.833,240.667 349.167,240.667 331.5,240C 351.86,225.81 366.86,207.31 376.5,184.5 Z M 30.5,256.5 C 56.1667,256.5 81.8333,256.5 107.5,256.5C 108.228,283.266 95.3948,298.6 69,302.5C 42.6052,298.6 29.7719,283.266 30.5,256.5 Z M 310.5,256.5 C 335.502,256.333 360.502,256.5 385.5,257C 388.142,281.362 377.476,296.362 353.5,302C 323.982,301.313 309.648,286.146 310.5,256.5 Z M 402.5,256.5 C 428.5,256.5 454.5,256.5 480.5,256.5C 481.187,283.303 468.353,298.636 442,302.5C 424.933,301.312 412.933,292.978 406,277.5C 404.142,270.616 402.976,263.616 402.5,256.5 Z M 217.5,258.5 C 242.5,265.146 267.5,265.146 292.5,258.5C 294.59,280.145 285.257,294.312 264.5,301C 248.705,304.29 235.538,299.79 225,287.5C 218.907,278.796 216.407,269.129 217.5,258.5 Z M 115.5,293.5 C 135.128,319 159.795,325.166 189.5,312C 197.618,307.549 204.118,301.383 209,293.5C 226.878,317.677 250.044,324.51 278.5,314C 288.274,309.367 296.107,302.534 302,293.5C 319.179,316.763 341.679,323.93 369.5,315C 380.292,310.525 388.792,303.358 395,293.5C 412.715,316.903 435.548,323.903 463.5,314.5C 464.495,320.128 464.829,325.794 464.5,331.5C 325.167,331.5 185.833,331.5 46.5,331.5C 46.1712,325.794 46.5046,320.128 47.5,314.5C 75.3898,323.979 98.0564,316.979 115.5,293.5 Z M 46.5,348.5 C 92.8333,348.5 139.167,348.5 185.5,348.5C 185.5,376.833 185.5,405.167 185.5,433.5C 139.167,433.5 92.8333,433.5 46.5,433.5C 46.5,405.167 46.5,376.833 46.5,348.5 Z M 201.5,348.5 C 237.5,348.5 273.5,348.5 309.5,348.5C 309.5,397.5 309.5,446.5 309.5,495.5C 273.5,495.5 237.5,495.5 201.5,495.5C 201.5,446.5 201.5,397.5 201.5,348.5 Z M 46.5,449.5 C 92.8333,449.5 139.167,449.5 185.5,449.5C 185.5,464.833 185.5,480.167 185.5,495.5C 139.167,495.5 92.8333,495.5 46.5,495.5C 46.5,480.167 46.5,464.833 46.5,449.5 Z M 325.5,449.5 C 371.833,449.5 418.167,449.5 464.5,449.5C 464.5,464.833 464.5,480.167 464.5,495.5C 418.167,495.5 371.833,495.5 325.5,495.5C 325.5,480.167 325.5,464.833 325.5,449.5 Z"/></g>
<g><path style="opacity:0.888" fill="#000000" d="M 70.5,365.5 C 76.1667,365.5 81.8333,365.5 87.5,365.5C 87.5,370.833 87.5,376.167 87.5,381.5C 81.8333,381.5 76.1667,381.5 70.5,381.5C 70.5,376.167 70.5,370.833 70.5,365.5 Z"/></g>
<g><path style="opacity:0.887" fill="#000000" d="M 101.5,365.5 C 107.167,365.5 112.833,365.5 118.5,365.5C 118.5,370.833 118.5,376.167 118.5,381.5C 112.833,381.5 107.167,381.5 101.5,381.5C 101.5,376.167 101.5,370.833 101.5,365.5 Z"/></g>
<g><path style="opacity:0.888" fill="#000000" d="M 132.5,365.5 C 138.167,365.5 143.833,365.5 149.5,365.5C 149.5,370.833 149.5,376.167 149.5,381.5C 143.833,381.5 138.167,381.5 132.5,381.5C 132.5,376.167 132.5,370.833 132.5,365.5 Z"/></g>
<g><path style="opacity:0.887" fill="#000000" d="M 231.5,402.5 C 237.167,402.5 242.833,402.5 248.5,402.5C 248.5,413.167 248.5,423.833 248.5,434.5C 242.833,434.5 237.167,434.5 231.5,434.5C 231.5,423.833 231.5,413.167 231.5,402.5 Z"/></g>
<g><path style="opacity:0.887" fill="#000000" d="M 262.5,402.5 C 268.167,402.5 273.833,402.5 279.5,402.5C 279.5,413.167 279.5,423.833 279.5,434.5C 273.833,434.5 268.167,434.5 262.5,434.5C 262.5,423.833 262.5,413.167 262.5,402.5 Z"/></g>
</svg>
