<?xml version="1.0" standalone="no"?>
<!DOCTYPE svg PUBLIC "-//W3C//DTD SVG 20010904//EN"
 "http://www.w3.org/TR/2001/REC-SVG-20010904/DTD/svg10.dtd">
<svg version="1.0" xmlns="http://www.w3.org/2000/svg"
 width="512.000000pt" height="512.000000pt" viewBox="0 0 512.000000 512.000000"
 preserveAspectRatio="xMidYMid meet">

<g transform="translate(0.000000,512.000000) scale(0.100000,-0.100000)"
fill="#000000" stroke="none">
<path d="M2142 5100 c-157 -42 -328 -156 -504 -338 -113 -116 -131 -148 -107
-191 24 -43 55 -52 124 -35 44 10 74 11 113 4 59 -11 79 -20 142 -65 77 -55
191 -112 289 -145 193 -65 372 -32 506 91 l41 38 37 -24 c59 -40 90 -104 95
-196 l4 -77 -43 -6 c-175 -21 -227 -30 -326 -56 -392 -101 -744 -345 -986
-681 -79 -111 -194 -337 -236 -464 -57 -172 -91 -375 -91 -540 0 -67 3 -79 25
-100 33 -34 86 -34 113 -1 15 20 20 48 25 158 12 225 66 437 163 629 53 107
129 229 142 229 11 0 128 -87 200 -148 68 -58 139 -153 153 -205 18 -67 -9
-167 -91 -338 -39 -80 -70 -158 -70 -173 0 -60 83 -98 127 -59 28 25 158 304
179 383 9 36 17 99 18 140 1 69 -2 83 -38 154 -27 55 -61 103 -114 158 -65 68
-189 172 -249 207 -16 10 -6 23 83 109 86 85 297 242 323 242 5 0 29 -35 54
-78 101 -175 234 -306 356 -353 75 -28 161 -33 256 -16 111 21 183 50 271 110
144 100 153 102 285 61 95 -29 183 -28 254 1 54 23 155 96 194 140 l32 37 42
-33 c93 -73 161 -138 222 -207 l63 -74 -54 -71 c-71 -91 -114 -166 -173 -297
-57 -126 -101 -194 -144 -221 -29 -17 -51 -19 -237 -18 -218 2 -263 -4 -358
-48 -119 -55 -211 -158 -288 -318 -47 -99 -74 -192 -74 -253 0 -32 6 -45 26
-61 64 -50 113 -13 143 108 39 156 136 308 234 365 71 41 119 48 327 47 219
-1 266 7 337 59 55 41 121 141 182 278 47 104 136 257 165 281 28 23 152 -245
201 -435 35 -135 42 -151 75 -164 34 -14 63 -6 90 23 26 27 25 48 -6 170 -50
200 -149 413 -272 587 -86 122 -290 326 -412 412 -237 167 -521 278 -790 308
-169 19 -153 8 -148 99 5 92 36 155 95 196 l37 24 41 -38 c133 -123 314 -156
504 -92 108 36 185 74 272 134 89 60 101 66 161 77 39 7 69 6 113 -4 69 -17
100 -8 124 35 24 43 6 75 -107 191 -179 185 -350 298 -508 338 -97 25 -161 25
-258 0 -152 -39 -261 -111 -321 -215 -28 -47 -65 -180 -65 -232 0 -28 -6 -37
-32 -51 -18 -9 -56 -39 -85 -66 l-53 -49 -53 49 c-29 27 -67 56 -83 65 -28 15
-31 22 -37 78 -9 88 -48 192 -94 252 -108 143 -361 221 -551 169z m231 -156
c145 -37 222 -106 243 -219 5 -31 4 -37 -7 -33 -8 3 -53 22 -101 42 -48 20
-96 36 -108 36 -31 0 -70 -44 -70 -78 0 -46 27 -68 138 -115 57 -23 105 -47
105 -52 3 -17 -101 -63 -157 -70 -97 -12 -256 46 -420 153 -43 29 -105 62
-138 74 l-60 22 33 28 c83 71 179 139 238 169 118 59 198 71 304 43z m1363 2
c99 -26 216 -98 353 -214 l33 -28 -60 -22 c-33 -12 -95 -45 -138 -74 -164
-107 -323 -165 -420 -153 -53 6 -157 52 -158 69 -1 5 46 29 104 53 113 47 140
69 140 115 0 34 -39 78 -70 78 -12 0 -60 -16 -108 -36 -48 -20 -93 -39 -101
-42 -11 -4 -12 3 -7 34 21 109 91 174 231 215 74 22 134 23 201 5z m-496 -971
c156 -30 365 -102 469 -162 l43 -25 -38 -40 c-22 -21 -63 -50 -91 -65 -60 -29
-83 -28 -207 6 -142 38 -209 25 -335 -63 -108 -76 -178 -106 -281 -118 -78
-10 -90 -9 -145 12 -80 31 -191 141 -264 263 -29 49 -51 90 -49 93 3 2 58 21
124 43 101 33 188 52 349 75 63 9 344 -3 425 -19z"/>
<path d="M4434 2471 c-94 -24 -126 -51 -461 -384 l-332 -331 -22 28 c-40 51
-73 78 -129 105 l-55 26 -489 3 -489 3 -79 74 c-253 238 -607 308 -928 183
-139 -54 -205 -104 -432 -327 l-218 -214 -64 61 c-100 96 -93 99 -313 -121
-167 -166 -183 -186 -183 -217 0 -33 41 -76 663 -697 621 -622 664 -663 697
-663 31 0 51 16 217 183 220 220 217 213 121 313 l-62 65 55 55 c104 107 34
98 824 105 774 6 731 2 900 84 56 27 118 67 165 108 41 36 283 273 536 528
531 534 518 517 519 674 0 82 -3 96 -32 156 -61 123 -172 197 -306 204 -39 2
-86 1 -103 -4z m191 -186 c82 -47 117 -163 76 -250 -13 -27 -182 -202 -522
-541 -453 -450 -511 -504 -574 -536 -148 -76 -102 -72 -875 -78 l-695 -5 -66
-31 c-41 -20 -93 -57 -138 -100 l-72 -68 -422 422 -422 422 190 191 c105 105
218 211 253 236 155 112 369 158 554 118 153 -32 267 -96 385 -215 l84 -85
519 -5 c504 -5 519 -6 546 -26 53 -39 69 -71 69 -134 0 -63 -16 -95 -69 -134
-27 -21 -41 -21 -638 -26 l-610 -5 -19 -24 c-27 -33 -24 -77 6 -107 l25 -25
612 3 613 3 56 26 c31 15 73 43 94 64 39 40 85 125 85 160 0 13 130 150 368
388 278 278 378 372 408 383 52 19 125 11 179 -21z m-3400 -1305 l580 -580
-103 -102 -102 -103 -582 582 -583 583 100 100 c55 55 102 100 105 100 3 0
266 -261 585 -580z"/>
</g>
</svg>
