<?xml version="1.0" standalone="no"?>
<!DOCTYPE svg PUBLIC "-//W3C//DTD SVG 20010904//EN"
 "http://www.w3.org/TR/2001/REC-SVG-20010904/DTD/svg10.dtd">
<svg version="1.0" xmlns="http://www.w3.org/2000/svg"
 width="512.000000pt" height="512.000000pt" viewBox="0 0 512.000000 512.000000"
 preserveAspectRatio="xMidYMid meet">

<g transform="translate(0.000000,512.000000) scale(0.100000,-0.100000)"
fill="#000000" stroke="none">
<path d="M2489 5111 c-42 -14 -54 -21 -712 -439 -486 -308 -641 -411 -649
-431 -13 -36 12 -88 49 -97 21 -6 41 0 85 25 l58 32 0 -116 0 -115 -347 0
c-359 0 -402 -4 -456 -42 -67 -48 -74 -68 -153 -419 -76 -339 -84 -405 -61
-462 18 -42 85 -101 131 -117 l36 -12 0 -324 0 -324 -113 0 c-153 0 -204 -16
-272 -84 -88 -88 -86 -70 -83 -682 3 -521 3 -530 25 -569 26 -48 85 -106 133
-130 19 -10 62 -20 97 -23 35 -2 63 -6 63 -8 0 -2 -16 -26 -36 -53 -65 -92
-77 -143 -82 -350 -3 -153 -1 -190 13 -226 24 -63 52 -94 109 -121 l51 -24
1533 0 1533 0 24 25 c32 31 32 69 0 100 l-24 25 -1526 0 c-1768 0 -1565 -16
-1565 120 l0 80 2210 0 2210 0 0 -80 c0 -131 48 -120 -534 -120 -484 0 -494 0
-520 -21 -36 -28 -36 -80 0 -108 26 -21 36 -21 528 -21 l501 0 51 24 c57 27
85 58 109 121 14 36 16 73 13 226 -5 207 -17 258 -82 350 -20 27 -36 51 -36
53 0 2 28 6 63 8 35 3 78 13 97 23 48 24 107 82 133 130 22 39 22 48 25 564 3
612 5 600 -82 686 -69 69 -120 85 -273 85 l-113 0 0 324 0 323 44 17 c47 18
110 79 126 122 20 51 9 127 -64 453 -79 351 -86 371 -153 419 -54 38 -97 42
-455 42 l-348 0 0 115 c0 63 2 115 5 115 2 0 26 -13 52 -30 49 -32 73 -36 102
-20 27 14 44 61 32 92 -7 19 -165 124 -628 419 -340 216 -642 406 -671 422
-57 31 -153 44 -203 28z m638 -478 l518 -330 3 -166 2 -167 -269 0 -270 0
-203 129 c-270 170 -259 165 -348 165 -90 0 -79 5 -347 -165 l-202 -129 -271
0 -270 0 2 166 3 167 510 324 c281 179 519 329 530 334 53 24 83 8 612 -328z
m-36 -828 c266 -169 495 -317 507 -329 53 -48 52 -33 52 -641 l0 -565 -180 0
-180 0 0 345 0 346 -25 24 -24 25 -681 0 -681 0 -24 -25 -25 -24 0 -346 0
-345 -180 0 -180 0 0 130 c0 126 -1 132 -25 155 -30 30 -64 32 -99 4 -26 -20
-26 -22 -26 -155 l0 -134 -350 0 -350 0 0 325 0 325 350 0 350 0 0 -49 c0 -42
4 -53 26 -70 35 -28 69 -26 99 4 l25 24 0 286 c0 305 1 316 52 361 23 21 969
625 998 637 48 20 88 -2 571 -308z m-1331 11 c0 -3 -73 -51 -162 -108 -265
-168 -278 -189 -278 -463 l0 -175 -422 0 c-467 0 -458 -1 -458 64 0 17 32 170
70 341 57 256 73 313 91 327 20 17 63 18 590 18 313 0 569 -2 569 -4z m2759
-14 c18 -14 34 -71 91 -327 38 -171 70 -323 70 -339 0 -16 -7 -38 -17 -48 -15
-17 -42 -18 -440 -18 l-423 0 0 175 c0 274 -13 295 -278 463 -89 57 -162 105
-162 108 0 2 256 4 569 4 527 0 570 -1 590 -18z m-19 -1207 l0 -325 -350 0
-350 0 0 325 0 325 350 0 350 0 0 -325z m-2020 -30 l0 -295 -250 0 -250 0 0
295 0 295 250 0 250 0 0 -295z m660 0 l0 -295 -250 0 -250 0 0 295 0 295 250
0 250 0 0 -295z m1755 -459 c19 -8 44 -30 55 -48 19 -32 20 -49 20 -534 l0
-501 -23 -34 c-12 -18 -34 -39 -47 -46 -37 -19 -4643 -19 -4680 0 -13 7 -35
28 -47 46 l-23 34 0 501 c0 485 1 502 20 534 40 66 -141 61 2388 62 1982 0
2307 -2 2337 -14z m-323 -1353 c90 -41 161 -123 186 -215 l10 -38 -2208 0
-2208 0 10 38 c17 61 44 106 91 149 51 47 90 69 144 82 22 5 864 8 1983 8
l1945 -2 47 -22z"/>
<path d="M705 1856 c-91 -28 -145 -96 -145 -180 0 -100 39 -144 182 -200 87
-35 138 -68 138 -88 0 -5 -11 -20 -25 -33 -42 -43 -120 -32 -204 30 -41 30
-60 31 -95 4 -39 -30 -36 -81 6 -121 88 -82 227 -111 326 -68 94 40 152 137
133 220 -21 93 -64 131 -215 191 -99 40 -118 63 -74 93 33 23 65 20 137 -15
55 -27 66 -29 91 -19 32 13 55 58 45 89 -10 32 -67 71 -136 92 -70 22 -107 23
-164 5z"/>
<path d="M1421 1855 c-71 -20 -110 -45 -165 -106 -65 -72 -89 -143 -84 -244 4
-62 11 -92 32 -133 99 -194 353 -254 502 -119 53 48 63 90 29 127 -25 28 -85
27 -111 -1 -51 -56 -150 -65 -217 -19 -61 42 -82 84 -82 166 0 66 3 76 31 111
66 81 154 100 252 54 44 -21 55 -22 81 -12 40 17 57 60 39 98 -32 68 -195 109
-307 78z"/>
<path d="M1926 1849 l-26 -20 0 -304 c0 -300 0 -304 22 -325 27 -25 69 -26 99
-1 22 18 24 27 27 140 l4 121 109 0 109 0 0 -114 c0 -99 3 -117 21 -140 27
-34 71 -35 104 -1 l25 24 0 294 c0 327 -1 330 -67 343 -26 5 -37 1 -57 -19
-25 -25 -26 -32 -26 -132 l0 -105 -110 0 -110 0 0 101 c0 98 -1 101 -29 130
-35 34 -59 36 -95 8z"/>
<path d="M2829 1857 c-103 -29 -181 -96 -228 -197 -22 -46 -26 -69 -26 -140 1
-106 31 -174 105 -244 76 -71 127 -91 235 -91 108 0 159 20 235 91 74 70 104
138 105 244 0 72 -4 94 -26 141 -37 78 -90 133 -163 169 -73 36 -167 47 -237
27z m178 -164 c139 -72 132 -279 -12 -344 -164 -75 -332 96 -254 258 48 100
165 138 266 86z"/>
<path d="M3677 1860 c-109 -28 -209 -116 -247 -218 -31 -80 -25 -195 14 -270
35 -70 95 -128 165 -161 48 -22 69 -26 146 -26 74 0 99 5 137 24 224 110 272
391 96 563 -76 75 -211 113 -311 88z m159 -165 c112 -56 144 -193 69 -291 -47
-61 -150 -91 -222 -63 -38 14 -92 67 -109 106 -43 99 11 222 113 258 56 21 93
18 149 -10z"/>
<path d="M4286 1849 l-26 -20 0 -305 c0 -374 -14 -344 163 -344 110 0 126 2
145 20 32 30 30 82 -4 109 -21 16 -41 21 -90 21 l-63 0 -3 246 -3 246 -28 24
c-34 29 -56 30 -91 3z"/>
</g>
</svg>
