<?xml version="1.0" standalone="no"?>
<!DOCTYPE svg PUBLIC "-//W3C//DTD SVG 20010904//EN"
 "http://www.w3.org/TR/2001/REC-SVG-20010904/DTD/svg10.dtd">
<svg version="1.0" xmlns="http://www.w3.org/2000/svg"
 width="512.000000pt" height="512.000000pt" viewBox="0 0 512.000000 512.000000"
 preserveAspectRatio="xMidYMid meet">

<g transform="translate(0.000000,512.000000) scale(0.100000,-0.100000)"
fill="#000000" stroke="none">
<path d="M470 5111 c-72 -22 -129 -73 -156 -138 -13 -30 -314 -1668 -314
-1707 0 -9 11 -28 25 -41 l24 -25 2016 0 2015 0 0 80 0 80 -1950 0 c-1553 0
-1950 3 -1950 13 0 6 63 356 140 777 133 733 140 766 165 787 l26 23 2049 0
2049 0 26 -23 c26 -22 32 -52 166 -787 76 -421 139 -771 139 -777 0 -10 -45
-13 -190 -13 l-190 0 0 -80 0 -80 80 0 80 0 0 -1360 0 -1360 -760 0 -760 0 0
1255 0 1256 -25 24 -24 25 -591 0 -591 0 -24 -25 -25 -24 0 -1256 0 -1255
-760 0 -760 0 0 1120 0 1120 -80 0 -80 0 0 -1120 0 -1120 -95 0 c-88 0 -98 -2
-120 -25 -25 -24 -25 -26 -25 -215 0 -189 0 -191 25 -215 l24 -25 2511 0 2511
0 24 25 c25 24 25 26 25 215 0 189 0 191 -25 215 -22 23 -32 25 -120 25 l-95
0 0 1360 0 1360 95 0 c88 0 98 2 120 25 14 13 25 32 25 42 0 37 -302 1679
-314 1708 -19 46 -64 93 -110 118 l-41 22 -2080 2 c-1144 1 -2091 -2 -2105 -6z
m2570 -3431 l0 -1200 -480 0 -480 0 0 1200 0 1200 480 0 480 0 0 -1200z m1920
-1440 l0 -80 -2400 0 -2400 0 0 80 0 80 2400 0 2400 0 0 -80z"/>
<path d="M1485 4861 c-78 -35 -133 -126 -122 -198 14 -84 60 -122 227 -186 54
-20 85 -37 85 -47 0 -21 -66 -36 -112 -24 -33 8 -38 13 -41 42 l-3 32 -80 0
-79 0 0 -37 c0 -48 29 -110 66 -145 44 -41 95 -58 174 -58 111 0 182 40 221
125 24 52 24 89 -2 143 -27 54 -67 81 -188 126 -110 41 -124 51 -97 72 23 16
83 18 120 4 20 -7 26 -16 26 -40 l0 -30 80 0 80 0 0 38 c-1 75 -57 155 -132
186 -52 22 -172 21 -223 -3z"/>
<path d="M1922 4627 l3 -254 27 -40 c41 -62 90 -88 168 -88 78 0 127 26 168
88 l27 40 3 254 3 253 -80 0 -81 0 -2 -231 c-3 -208 -5 -233 -20 -243 -13 -8
-23 -8 -35 0 -16 10 -18 35 -21 243 l-2 231 -81 0 -80 0 3 -253z"/>
<path d="M2426 4857 l-26 -26 0 -296 0 -295 80 0 80 0 0 119 0 118 56 6 c67 7
122 40 155 94 19 30 24 52 24 103 0 78 -26 127 -88 168 -36 24 -51 27 -148 30
-105 4 -108 3 -133 -21z m208 -159 c16 -26 -4 -52 -43 -56 -30 -3 -31 -2 -31
38 0 40 1 41 31 38 18 -2 37 -11 43 -20z"/>
<path d="M2905 4855 l-25 -24 0 -271 0 -271 25 -24 c23 -24 29 -25 160 -25
l135 0 0 80 0 80 -80 0 -80 0 0 40 0 40 40 0 40 0 0 80 0 80 -40 0 -40 0 0 40
0 40 80 0 80 0 0 80 0 80 -135 0 c-131 0 -137 -1 -160 -25z"/>
<path d="M3305 4855 l-25 -24 0 -296 0 -295 80 0 80 0 0 75 0 75 40 -20 c39
-20 40 -21 40 -75 l0 -55 80 0 80 0 0 95 c0 88 -2 98 -25 120 -13 14 -29 25
-34 25 -6 0 3 22 20 49 42 67 49 141 20 207 -46 102 -118 144 -249 144 -75 0
-85 -2 -107 -25z m192 -157 c38 -36 26 -85 -27 -113 l-30 -16 0 76 c0 84 12
95 57 53z"/>
<path d="M905 4055 l-25 -24 0 -296 0 -295 80 0 79 0 3 157 3 158 49 -67 c27
-37 62 -72 77 -79 44 -18 79 3 135 79 l49 67 3 -158 3 -157 79 0 80 0 0 295 0
296 -25 24 c-26 27 -71 33 -98 13 -9 -7 -55 -65 -102 -128 -48 -63 -90 -115
-95 -115 -5 0 -47 52 -95 115 -47 63 -93 121 -102 128 -27 20 -72 14 -98 -13z"/>
<path d="M1760 4067 c-49 -16 -133 -102 -148 -153 -8 -27 -12 -117 -12 -258
l0 -216 80 0 80 0 0 40 0 40 80 0 80 0 0 -40 0 -40 80 0 80 0 0 216 c0 139 -4
231 -12 256 -17 59 -88 133 -145 152 -53 18 -112 19 -163 3z m135 -172 c23
-22 25 -32 25 -120 l0 -95 -80 0 -80 0 0 95 c0 88 2 98 25 120 15 16 36 25 55
25 19 0 40 -9 55 -25z"/>
<path d="M2185 4056 l-25 -25 0 -296 0 -295 80 0 80 0 0 75 c0 41 4 75 8 75 4
0 39 -11 78 -23 l69 -24 3 -51 3 -52 80 0 79 0 0 95 c0 88 -2 98 -25 120 -13
14 -31 25 -40 25 -16 0 -21 16 -6 22 19 7 60 80 66 118 15 90 -29 186 -107
230 -39 23 -56 25 -180 28 -136 4 -137 4 -163 -22z m275 -156 c23 -23 26 -49
8 -73 -11 -14 -115 -57 -140 -57 -4 0 -8 34 -8 75 l0 75 60 0 c47 0 64 -4 80
-20z"/>
<path d="M2720 3760 l0 -320 80 0 80 0 0 95 0 95 80 -40 80 -40 0 -55 0 -55
80 0 80 0 0 93 c0 63 -4 99 -14 112 -8 11 -55 40 -105 65 -50 24 -91 47 -91
50 0 3 41 26 91 50 50 25 97 54 105 65 10 13 14 49 14 112 l0 93 -80 0 -80 0
0 -55 0 -55 -80 -40 -80 -40 0 95 0 95 -80 0 -80 0 0 -320z"/>
<path d="M3305 4055 l-25 -24 0 -271 0 -271 25 -24 c23 -24 29 -25 160 -25
l135 0 0 80 0 80 -80 0 -80 0 0 40 0 40 40 0 40 0 0 80 0 80 -40 0 -40 0 0 40
0 40 80 0 80 0 0 80 0 80 -135 0 c-131 0 -137 -1 -160 -25z"/>
<path d="M3680 4000 l0 -80 80 0 80 0 0 -240 0 -240 80 0 80 0 0 240 0 240 80
0 80 0 0 80 0 80 -240 0 -240 0 0 -80z"/>
<path d="M4240 3280 l0 -80 80 0 80 0 0 80 0 80 -80 0 -80 0 0 -80z"/>
<path d="M240 2960 l0 -80 80 0 80 0 0 80 0 80 -80 0 -80 0 0 -80z"/>
<path d="M585 3015 l-25 -24 0 -1151 0 -1151 25 -24 24 -25 591 0 591 0 24 25
25 24 0 1151 0 1151 -25 24 -24 25 -591 0 -591 0 -24 -25z m1055 -138 c0 -1
-207 -209 -460 -462 l-460 -460 0 463 0 462 460 0 c253 0 460 -1 460 -3z
m-305 -1267 c-190 -190 -345 -349 -345 -355 0 -13 92 -105 105 -105 5 0 139
129 297 287 l288 288 0 -463 0 -462 -480 0 -480 0 0 222 0 223 267 267 268
268 -58 57 -57 58 -210 -210 -210 -210 0 125 0 125 478 478 477 477 3 -362 2
-363 -345 -345z"/>
<path d="M1382 2137 c-39 -40 -72 -77 -72 -83 0 -13 92 -104 106 -104 5 0 43
34 84 75 l74 75 -54 55 c-30 30 -57 55 -60 55 -3 0 -38 -33 -78 -73z"/>
<path d="M3305 3015 l-25 -24 0 -1151 0 -1151 25 -24 24 -25 591 0 591 0 24
25 25 24 0 1151 0 1151 -25 24 -24 25 -591 0 -591 0 -24 -25z m1055 -138 c0
-1 -207 -209 -460 -462 l-460 -460 0 463 0 462 460 0 c253 0 460 -1 460 -3z
m-305 -1267 c-190 -190 -345 -349 -345 -355 0 -13 92 -105 105 -105 5 0 139
129 297 287 l288 288 0 -463 0 -462 -480 0 -480 0 0 222 0 223 267 267 268
268 -58 57 -57 58 -210 -210 -210 -210 0 125 0 125 478 478 477 477 3 -362 2
-363 -345 -345z"/>
<path d="M4102 2137 c-39 -40 -72 -77 -72 -83 0 -13 92 -104 106 -104 5 0 43
34 84 75 l74 75 -54 55 c-30 30 -57 55 -60 55 -3 0 -38 -33 -78 -73z"/>
</g>
</svg>
